# xmcd
#
# Track frame offsets: 
#        150
#        15468
#        30650
#        50261
#        65008
#        81429
#        98896
#        113154
#        129447
#        146047
#        161572
#        176070
#
# Disc length: 2518 seconds
#
# Revision: 0
# Processed by: cddbd v1.5.2PL0 Copyright (c) Steve Scherf et al.
# Submitted via: ExactAudioCopy v0.99pb3
#
DISCID=a009d40c
DTITLE=Country Romance - The Nashville Sessions
DYEAR=2006
DGENRE=Country
TTITLE0=Hello Darlin'
TTITLE1=Behind Closed Doors
TTITLE2=Crazy
TTITLE3=Blue Eyes Crying In The Rain
TTITLE4=The End Of The World
TTITLE5=For The Good Times
TTITLE6=I Will Always Love You
TTITLE7=Last Date
TTITLE8=Galveston
TTITLE9=Tennessee Waltz
TTITLE10=He Stopped Loving Her Today
TTITLE11=King Of The Road
EXTD=
EXTT0=
EXTT1=
EXTT2=
EXTT3=
EXTT4=
EXTT5=
EXTT6=
EXTT7=
EXTT8=
EXTT9=
EXTT10=
EXTT11=
PLAYORDER=
